{"title":"The Mask of Zorro (1998) 720p BRRip HEVC x265 [Dual-Audio][Engli","uid":12046265,"size":1439187905,"categoryP":"video","categoryS":"movies","magnet":"?xt=urn:btih:9c467bab0afbf1d2604085188d768b4049b1bd2f&amp;dn=The+Mask+of+Zorro+%281998%29+720p+BRRip+HEVC+x265+%5BDual-Audio%5D%5BEngli&amp;tr=udp%3A%2F%2Ftracker.openbittorrent.com%3A80&amp;tr=udp%3A%2F%2Fopen.demonii.com%3A1337&amp;tr=udp%3A%2F%2Ftracker.coppersurfer.tk%3A6969&amp;tr=udp%3A%2F%2Fexodus.desync.com%3A6969","seeders":8,"leechers":9,"uploader":"praneet_gupta777","files":3,"time":1434905524,"description":"[center]\n[b][size=7]The Mask of Zorro (1998) 720p BRRip HEVC x265 [Dual-Audio][English 5.1+Hindi 5.1] Esubs [PKG][/size][/b]\n\n\n\n\n\n[img]http://extraimago.com/images/2015/06/21/23245.jpg[/img]\n\n\n[img]http://extraimago.com/images/2015/06/21/Untitled.png[/img]\n\n\n\n[img]http://img9.uploadhouse.com/fileuploads/15981/15981250a2a3770f9f004bcdf00afac92833ebdb.png[/img]\n\n\n[quote]\n\n\nGeneral\nUnique ID                   : 193338400202314992584131031023647810259 (0x91739F165C7D534780211468A53562D3)\nComplete name               : G:The Mask of Zorro (1998) 720p BRRip HEVC x265 [Dual-Audio][English 5.1+Hindi 5.1] Esubs [PKG]The Mask of Zorro (1998) 720p BRRip HEVC x265 [Dual-Audio][English 5.1+Hindi 5.1] Esubs [PKG].mkv\nFormat                      : Matroska\nFormat version              : Version 2\nFile size                   : 1.33 GiB\nDuration                    : 2h 17mn\nOverall bit rate            : 1 389 Kbps\nEncoded date                : UTC 2015-06-12 14:26:28\nWriting application         : mkvmerge v7.7.0 ('Six Voices') 32bit built on Feb 28 2015 23:23:00\nDURATION                    : 02:15:02.787000000\nNUMBER_OF_FRAMES            : 840\nNUMBER_OF_BYTES             : 32177\n\nVideo\nID                          : 1\nFormat                      : HEVC\nFormat/Info                 : High Efficiency Video Coding\nCodec ID                    : V_MPEGH/ISO/HEVC\nDuration                    : 2h 17mn\nBit rate                    : 1 041 Kbps\nWidth                       : 1 280 pixels\nHeight                      : 536 pixels\nDisplay aspect ratio        : 2.40:1\nFrame rate mode             : Constant\nFrame rate                  : 23.976 fps\nBits/(Pixel*Frame)          : 0.063\nStream size                 : 1.00 GiB (75%)\nTitle                       : The Mask of Zorro (1998) [PKG]\nDefault                     : Yes\nForced                      : No\n\nAudio #1\nID                          : 2\nFormat                      : AC-3\nFormat/Info                 : Audio Coding 3\nMode extension              : CM (complete main)\nFormat settings, Endianness : Big\nCodec ID                    : A_AC3\nDuration                    : 2h 17mn\nBit rate mode               : Constant\nBit rate                    : 160 Kbps\nChannel(s)                  : 6 channels\nChannel positions           : Front: L C R, Side: L R, LFE\nSampling rate               : 48.0 KHz\nBit depth                   : 16 bits\nCompression mode            : Lossy\nStream size                 : 158 MiB (12%)\nTitle                       : Hindi [PKG]\nLanguage                    : Hindi\nDefault                     : Yes\nForced                      : No\n\nAudio #2\nID                          : 3\nFormat                      : AC-3\nFormat/Info                 : Audio Coding 3\nMode extension              : CM (complete main)\nFormat settings, Endianness : Big\nCodec ID                    : A_AC3\nDuration                    : 2h 17mn\nBit rate mode               : Constant\nBit rate                    : 160 Kbps\nChannel(s)                  : 6 channels\nChannel positions           : Front: L C R, Side: L R, LFE\nSampling rate               : 48.0 KHz\nBit depth                   : 16 bits\nCompression mode            : Lossy\nStream size                 : 158 MiB (12%)\nTitle                       : English [PKG]\nLanguage                    : English\nDefault                     : No\nForced                      : No\n\nText\nID                          : 4\nFormat                      : UTF-8\nCodec ID                    : S_TEXT/UTF8\nCodec ID/Info               : UTF-8 Plain Text\nTitle                       : English [PKG]\nLanguage                    : English\nDefault                     : Yes\nForced                      : No\n\n\n[color=navy][size=6][b]SAMPLE WITHIN TORRENT[/b][/size][/color]\n\n\n\n\n\n[img]http://icons.iconarchive.com/icons/tribalmarkings/colorflow/256/screenshots-icon.png[/img]\n\n\n\n[img]http://extraimago.com/images/2015/06/21/vlcsnap-2015-06-21-19h01m39s48.png[/img]\n\n[img]http://extraimago.com/images/2015/06/21/vlcsnap-2015-06-21-19h43m48s34.png[/img]\n\n[img]http://extraimago.com/images/2015/06/21/vlcsnap-2015-06-21-19h46m39s206.png[/img]\n\n[img]http://extraimago.com/images/2015/06/21/vlcsnap-2015-06-21-19h48m20s166.png[/img]\n\n[img]http://extraimago.com/images/2015/06/21/vlcsnap-2015-06-21-19h44m18s70.png[/img]\n\n[img]http://extraimago.com/images/2015/06/21/vlcsnap-2015-06-21-19h45m07s21.png[/img]\n\n[img]http://extraimago.com/images/2015/06/21/TheMaskofZorro1998720pBRRipHEVCx265Dual-AudioEnglish5.1Hindi5.1EsubsPKG.mkv_thumbs_2015.06.21_19.50.08.jpg[/img]\n\n\n\n\n\n[b]Use a reputed media player that can play H.265 (HEVC : High Efficiency Video Coding) Video support.\nMedia Player Classic - Home Cinema and MPC-BE are recommended!.. VLC is OKay, but MPC variants are preferred.\nVLC and players like latest GOM, KMP/PotP with LAV can play HEVC.\n\nAnd also use latest K-Lite Codec Pack.\n\nIn Mobile, Android, Tabs, use a media player like VLC Player, MX Player... that can play H.265 :]\nFor more info, read the How_to_Play_ file inside the torrent.\n\n\nBe aware that all HEVC rips will not play on any stand-alone device. You can only watch this on a computer or on devices which have HEVC support.\nBe sure that you have the latest versions of VLC or Media Player Classic or SMPlayer. Earlier versions may not work[/b]\n\n\n\n[/center]","torrent":{"xt":"urn:btih:9c467bab0afbf1d2604085188d768b4049b1bd2f","amp;dn":"The+Mask+of+Zorro+%281998%29+720p+BRRip+HEVC+x265+%5BDual-Audio%5D%5BEngli","amp;tr":["udp%3A%2F%2Ftracker.openbittorrent.com%3A80","udp%3A%2F%2Fopen.demonii.com%3A1337","udp%3A%2F%2Ftracker.coppersurfer.tk%3A6969","udp%3A%2F%2Fexodus.desync.com%3A6969"],"infoHash":"9c467bab0afbf1d2604085188d768b4049b1bd2f","infoHashBuffer":{"type":"Buffer","data":[156,70,123,171,10,251,241,210,96,64,133,24,141,118,139,64,73,177,189,47]},"announce":[],"urlList":[]}}